#tb 0: 32768/982057
#media_type 0: video
#codec_id 0: rawvideo
#dimensions 0: 352x240
#sar 0: 0/1
0,          0,          0,        1,   126720, 0xcefaec47
0,          1,          1,        1,   126720, 0xa416ece5
0,          2,          2,        1,   126720, 0xa416ece5
0,          3,          3,        1,   126720, 0xa416ece5
0,          4,          4,        1,   126720, 0x60d6ed27
0,          5,          5,        1,   126720, 0x259af497
0,          6,          6,        1,   126720, 0x5e6ff4d7
0,          7,          7,        1,   126720, 0xcc10f4b7
0,          8,          8,        1,   126720, 0x2811b819
0,          9,          9,        1,   126720, 0x9b36b8d9
0,         10,         10,        1,   126720, 0x9488b919
0,         11,         11,        1,   126720, 0x316cb902
0,         12,         12,        1,   126720, 0xfd2ab949
0,         13,         13,        1,   126720, 0x7cc9bbb9
0,         14,         14,        1,   126720, 0xdb1bbc39
0,         15,         15,        1,   126720, 0x3d9abbe2
0,         16,         16,        1,   126720, 0xc226b929
0,         17,         17,        1,   126720, 0x3623ae2e
0,         18,         18,        1,   126720, 0x8aff9a0d
0,         19,         19,        1,   126720, 0x7c85a832
0,         20,         20,        1,   126720, 0xbe2fba7e
0,         21,         21,        1,   126720, 0xb4eea89c
0,         22,         22,        1,   126720, 0x2ce0ab91
0,         23,         23,        1,   126720, 0x5808aace
0,         24,         24,        1,   126720, 0x6e5ebcde
0,         25,         25,        1,   126720, 0x9202a769
0,         26,         26,        1,   126720, 0x7df4eed2
0,         27,         27,        1,   126720, 0x4763b8e7
0,         28,         28,        1,   126720, 0x06970809
0,         29,         29,        1,   126720, 0xf30189d0
0,         30,         30,        1,   126720, 0x4a6b05c1
0,         31,         31,        1,   126720, 0x5caebf3d
0,         32,         32,        1,   126720, 0x640d08d4
0,         33,         33,        1,   126720, 0x4b72d969
0,         34,         34,        1,   126720, 0xbfe8df9d
0,         35,         35,        1,   126720, 0xfc26b0f5
0,         36,         36,        1,   126720, 0x142b7c58
0,         37,         37,        1,   126720, 0x1b5dba4c
0,         38,         38,        1,   126720, 0x5fcea883
0,         39,         39,        1,   126720, 0xd9f7d365
0,         40,         40,        1,   126720, 0xb8a300aa
0,         41,         41,        1,   126720, 0x675650a6
0,         42,         42,        1,   126720, 0xf06d2016
0,         43,         43,        1,   126720, 0x4ee56425
0,         44,         44,        1,   126720, 0x98ec6723
0,         45,         45,        1,   126720, 0x80d4cb5b
0,         46,         46,        1,   126720, 0x8d1cd091
0,         47,         47,        1,   126720, 0xaca8e9fe
0,         48,         48,        1,   126720, 0x1ae18b52
0,         49,         49,        1,   126720, 0xe53d997a
0,         50,         50,        1,   126720, 0xcb4b8ff3
0,         51,         51,        1,   126720, 0x9682b249
0,         52,         52,        1,   126720, 0xf4e19918
0,         53,         53,        1,   126720, 0x28849c20
0,         54,         54,        1,   126720, 0xe4b89dda
0,         55,         55,        1,   126720, 0xe981d407
0,         56,         56,        1,   126720, 0x73ad4998
0,         57,         57,        1,   126720, 0x346387bd
0,         58,         58,        1,   126720, 0xa07c822f
0,         59,         59,        1,   126720, 0xd911b08b
0,         60,         60,        1,   126720, 0x7a1b6161
0,         61,         61,        1,   126720, 0xa451f33f
0,         62,         62,        1,   126720, 0xb9aed79d
0,         63,         63,        1,   126720, 0x50c6f4e5
0,         64,         64,        1,   126720, 0x6ed9d8e3
0,         65,         65,        1,   126720, 0xea6d352a
0,         66,         66,        1,   126720, 0xb8f4373b
0,         67,         67,        1,   126720, 0xf5a52e4c
0,         68,         68,        1,   126720, 0xf8dbbd01
0,         69,         69,        1,   126720, 0x7395ec3c
0,         70,         70,        1,   126720, 0x1249470b
0,         71,         71,        1,   126720, 0xf12a1105
0,         72,         72,        1,   126720, 0xef38d2ba
0,         73,         73,        1,   126720, 0xa1325a34
0,         74,         74,        1,   126720, 0xc38232b1
0,         75,         75,        1,   126720, 0x08f9f498
0,         76,         76,        1,   126720, 0xf6f208c5
0,         77,         77,        1,   126720, 0x694b1fed
0,         78,         78,        1,   126720, 0xac811fc2
0,         79,         79,        1,   126720, 0x2f2b4903
0,         80,         80,        1,   126720, 0x4a4aad01
0,         81,         81,        1,   126720, 0xce4557e3
0,         82,         82,        1,   126720, 0x257a1145
0,         83,         83,        1,   126720, 0x94580be2
0,         84,         84,        1,   126720, 0x2422ee8a
0,         85,         85,        1,   126720, 0x801905b7
0,         86,         86,        1,   126720, 0x4de639ba
0,         87,         87,        1,   126720, 0x24d22fa8
0,         88,         88,        1,   126720, 0xbb38e309
0,         89,         89,        1,   126720, 0xb8ec150d
0,         90,         90,        1,   126720, 0xc9fb0eb7
0,         91,         91,        1,   126720, 0xb6e40f48
0,         92,         92,        1,   126720, 0xd7028922
0,         93,         93,        1,   126720, 0x3a24d332
0,         94,         94,        1,   126720, 0x06b2a598
0,         95,         95,        1,   126720, 0xf2041a92
0,         96,         96,        1,   126720, 0xc58a8d10
0,         97,         97,        1,   126720, 0x0d99293d
0,         98,         98,        1,   126720, 0x7b72e768
0,         99,         99,        1,   126720, 0x0c62f900
0,        100,        100,        1,   126720, 0xcdb7bc31
0,        101,        101,        1,   126720, 0x04d3bdc2
0,        102,        102,        1,   126720, 0x0355928e
0,        103,        103,        1,   126720, 0x84310d32
0,        104,        104,        1,   126720, 0xc202ebe6
0,        105,        105,        1,   126720, 0x0cf2703a
0,        106,        106,        1,   126720, 0xe4c95979
0,        107,        107,        1,   126720, 0x4f846144
0,        108,        108,        1,   126720, 0x3f1a17a4
